<svg id="Layer_1" data-name="Layer 1" xmlns="http://www.w3.org/2000/svg" viewBox="0 0 95.17 195.36"><path d="M73.71,185.27c-20.88,0-36.21,1-41.57,1s-6.93-6.92.26-6.92c4.8,0,11.61-6.93,15.57-10.89,3,0,3,1,8.91,0,6.93,6.93,15.57,9.9,18.81,9.9C80.64,178.35,79.65,185.27,73.71,185.27Z" style="fill:#421c10;stroke:#020202;stroke-miterlimit:10;opacity:0.86"/><path d="M30.65,182.8c-.13,3.74,13.64,1.13,16.83,0,3.73-1.32,22.62.26,22.76-1s-18.8-3-20.78-3C44.58,178.84,30.81,178.32,30.65,182.8Z" style="fill:#ca9a50"/><path d="M53.42,178.84c0-1,13.85-2,15.83-1s5.94,2,5.94,3S53.42,180.82,53.42,178.84Z" style="fill:#b85235"/><path d="M55.4,170.92c1,0-13.86,9.9-15.84,9.9s-2,0,2-4S49,169.07,49,169.07A52.79,52.79,0,0,0,55.4,170.92Z" style="fill:#b85235"/><path d="M49.46,171.54a22.33,22.33,0,0,0,4.95.37c1,0-.52,4.08-2.24,4S48.47,171.17,49.46,171.54Z" style="fill:#ca9a50"/><circle cx="52.66" cy="164.39" r="5.94" style="fill:#421c10;stroke:#020202;stroke-miterlimit:10;opacity:0.86"/><ellipse cx="51.87" cy="163.9" rx="3.26" ry="2.96" style="fill:#ca9a50"/><circle cx="50.68" cy="161.42" r="1.48" style="fill:#fff"/><circle cx="53.65" cy="162.41" r="1.48" style="fill:#b85235"/><polyline points="13.83 112.53 20.75 111.54 20.75 116.14" style="fill:none;stroke:#000;stroke-miterlimit:10"/><line x1="25.21" y1="108.07" x2="20.26" y2="112.03" style="fill:none;stroke:#000;stroke-miterlimit:10"/><path d="M56.88,152.61c9,0,12.87-10.89,14.85-8.91S67,158.55,55.89,158.55c-13.85,0-13.08-9.68-11.88-15.84-6.92-4.94-8.09-11.39-6.92-17.81,2-10.89,26.72-27.71,29-33.65s-3.22-8.47-9.16-8.2S47,89.27,44,91.25c0,0-1,5.94-3.95,8.9s-12.87,8.91-14.85,7.92,0-7.92,3-12.86,8.91-6.93,9.9-6.93,5.83-10,15.83-12.87c6.93-2,20.79,1,20.79,11.88,0,12.86-23.76,28.7-27.22,34.53-4.51,7.59-2.48,12-.75,12.82,2.23-8.75,19.06-19.64,24-12.71C77,130.64,64.8,143.7,50,143.7,50,143.7,47,152.61,56.88,152.61Zm7.92-23.75c-3-3-11.88,4.95-11.88,6.93C55.16,136.48,66.78,130.84,64.8,128.86Z" style="fill:#421c10;stroke:#020202;stroke-miterlimit:10;opacity:0.86"/><path d="M28.18,103.12c1,1,7.92-4,9.9-5.93s1-5,2-5.94,8.41-10.4,17.32-10.4c3.46,0,9.89,2,9.89,7.92,0,7.92-22.24,22.71-26.72,31.67-2,4,0,9.9,1,9.9s-1-5,2-9.9c1.46-2.42,27-23.36,28.7-32.66,1.23-6.82-5-10.88-13.85-10.88S42,86.3,39.07,89.27s-5,2-7.92,5S27.19,102.13,28.18,103.12Z" style="fill:#ca9a50"/><path d="M67.86,130.34c2.38,0,3.37-5.94,1.39-7.92-2.21-2.21-8-1-17.38,7.39-8.35,7.46-8.35,19.34-4.39,24.29,2.62,3.28,7.12,1.53,4-1-4.95-4-5.94-7.92-4-12.87,1.88-4.7,13.52-18,18.8-13.86C68.5,128.1,65.27,130.34,67.86,130.34Z" style="fill:#ca9a50"/><circle cx="53.42" cy="155.09" r="0.99" style="fill:#fff"/><circle cx="58.37" cy="155.09" r="0.99" style="fill:#fff"/><circle cx="62.33" cy="136.28" r="0.99" style="fill:#fff"/><path d="M30.65,99.66c1,1,2-1,1-1A1,1,0,0,0,30.65,99.66Z" style="fill:#ca9a50;stroke:#000;stroke-miterlimit:10"/><circle cx="50.94" cy="70.46" r="5.94" style="fill:#421c10;stroke:#020202;stroke-miterlimit:10;opacity:0.86"/><ellipse cx="50.15" cy="69.98" rx="3.26" ry="2.96" style="fill:#ca9a50"/><circle cx="48.96" cy="67.49" r="1.48" style="fill:#fff"/><circle cx="51.93" cy="67.49" r="1.48" style="fill:#b85235"/><path d="M75.69,17c5.54,0-57.4-.32-53.45,0,10.89,4-3,46.52,27.71,46.52S67.77,20,75.69,17Z" style="fill:#ca9a50;stroke:#000;stroke-miterlimit:10"/><path d="M22.24,17c10.89,4-3,46.52,27.71,46.52S67.77,20,75.69,17C81.23,17,18.29,16.69,22.24,17ZM45,55.62c-11.91-.33-12.37-23.26-12.37-35.14,6.93-4,24.75-1,25.74,0S63.31,56.11,45,55.62Z" style="fill:#b85235"/><path d="M50,63.53C80.64,63.53,67.77,20,75.69,17H64.28s7.45,1.28,7.45,3.25c0,5.66-7,2-7.43,10.12C64,37.14,61.93,61.1,51.44,62.05c-10.89,1-20.79-9.9-21.28-28.21C29.76,19,23.23,17,23.23,17h-1C33.13,21,19.27,63.53,50,63.53Z" style="fill:#421c10;opacity:0.86"/><path d="M20.26,9.1h58.4c5.36,0,2,7.91-4,7.91-5.55,0-48.53-.42-51.47,0C17.75,17.8,14.32,9.1,20.26,9.1Z" style="fill:#ca9a50;stroke:#000;stroke-miterlimit:10"/><path d="M25.7,10.58c0-.82-4.54-.68-5.36-.68a1.49,1.49,0,0,0,0,3C20.73,12.87,25.7,11,25.7,10.58Z" style="fill:#b85235"/><path d="M65.47,10.76c0-1.71,9.79-1.42,11.56-1.42a3.1,3.1,0,1,1,0,6.19C76.2,15.53,65.47,11.67,65.47,10.76Z" style="fill:#421c10;opacity:0.86"/><path d="M58.45,10c0-.82,9.8-.68,11.56-.68s3.2.67,3.2,1.49S71.78,12.3,70,12.3C69.18,12.3,58.45,10.45,58.45,10Z" style="fill:#b85235"/><ellipse cx="46.98" cy="15.53" rx="24.74" ry="0.49" style="fill:#421c10;opacity:0.86"/></svg>