<svg id="Layer_1" data-name="Layer 1" xmlns="http://www.w3.org/2000/svg" viewBox="0 0 186.96 289.64"><path d="M182.55,255.84c-.79-.2-18.32-5.75-10.16-30.24,2.16-6.47-14.36-16.62-18.59-9.37-13.52,23.18,18.16,37.94,15.78,37.52-57.44-10.13-32.24-32.8-33.07-49.68-.37-7.45-19.24-7.85-20.43,2.94-2.25,20.42,14.2,32.81,10.7,31.26C85.53,220,116.5,190.68,104,179.42c-7.58-6.82-16.08.34-17.17,6.76-2.89,17,10.48,33.41,8.73,31.81-16-14.64-24.14-41.11-14.6-49.86,12.55-11.52-4-35.24-11.87-22.85-8.36,13.14,9.12,52.16,3.1,45.68-18.3-19.71-18.94-50.2-9.29-59.41s4-34.93-10.14-24.21c-9.29,7,.49,49.43-.56,47-24.5-56,2.15-63.84,4.23-74.48.53-2.67,3-19.83-6.57-22.31-7.16-1.85-10.69,7-10.61,17.95.11,16.9.84,38.3-1,32.93-7.44-21.8-13.64-63.66,2.3-72.05,15.65-8.24,11.83-30,2.13-27.76-10.64,2.44-12.45,15.49-15,31-.22,1.37-.65-5-4.22-16.17C19.29,10.34,10.35-1,6.84,4-1.8,16.4,15,26.22,18.94,34.7s11.72,40.49,9.3,42S17.54,43.71,7.46,51.93c-4.55,3.7-1.75,16.35,5.29,22.75C29.84,90.21,32.12,102,31.33,108.75c-.56,4.78-15.95-16.75-22-9.57C5.9,103.32,11.63,121,20.55,122.29c11.06,1.66,35,41.86,25.14,34.32-2.2-1.68-25.58-24.07-29.22-15-4.57,11.36,3,23.3,10.36,22.91,20.83-1.13,24.21,3.38,43.36,32.09,1.72,2.59-20.56-18-31.26-15.2-18.49,4.87-4.91,28.69,4,22.89,15.21-9.85,27.54-8.83,57.35,22.16,6.4,6.64-29.56-14.64-45.33-3.66-13.46,9.37-.74,28.4,11.55,19.43,17.74-13,34.91-12.67,71.8,6.47,4.56,2.37-34.81-6.24-52,5.49C73,263.32,91,278,104.82,271.77c15.53-7,39.84-19.8,59.55-13.94,3.95,1.18-17.18,6.52-23.82,15-10.67,13.69,13.82,18.9,20.44,8.48,5.94-9.34,8.9-23.9,21.56-21.39L188,261.3l.49-3.85Z" style="fill:#423865;stroke:#000;stroke-miterlimit:10"/><path d="M23,39.45a54.32,54.32,0,0,0-3-19.78c-6-14.84-9.83-1.25-7.61,6C14.06,31.11,17.67,29.8,23,39.45Z" style="fill:#9b7047"/><path d="M27.81,50.85c0-10.65-.7-26.61,3.31-31,7.37-8,13.38.28,10.91,7.25C40.59,31.2,31,38.81,27.81,50.85Z" style="fill:#9b7047"/><path d="M30.25,89.14c-1.12-10.6-5.08-24-9-29.75-6.07-9-11.82,3.42-7.58,9.57C17.38,74.31,21.24,71.78,30.25,89.14Z" style="fill:#9b7047"/><path d="M37.53,101.25c-4.88-6.85-5.64-16-5.63-32.85,0-10.89,11.09-12.93,11.26-2C43.23,70.75,36.68,76,37.53,101.25Z" style="fill:#9b7047"/><path d="M39.4,132c0-6.13-7.66-24-12.48-29-7.51-7.88-13.42,4.69-5.79,11.94C26.4,119.88,32.69,121.9,39.4,132Z" style="fill:#9b7047"/><path d="M50.75,153.84c-3.24-10.15-5.62-13.46-5.62-36.36,0-13.13,10.23-10.79,10.23-.65C55.36,121.15,49.82,134.66,50.75,153.84Z" style="fill:#9b7047"/><path d="M56.11,171.78c-3.1-10-12.18-24.72-18.34-28C29.52,139.4,25.35,155,35.67,157,47.1,159.25,54.42,171.78,56.11,171.78Z" style="fill:#9b7047"/><path d="M76.79,195.43c-4.51-9.65-7.3-7.8-10.23-30.51-1.68-13,8.77-12,10.06-2C77.18,167.24,73.41,176.53,76.79,195.43Z" style="fill:#9b7047"/><path d="M68.5,196.56c-5.79-8.95-10.38-14.62-16.47-18-9.51-5.32-11.27,10.85-4.33,13.18C53.86,193.78,58.93,191.29,68.5,196.56Z" style="fill:#9b7047"/><path d="M96,226.64c-1.89-4-18.84-8.38-25.82-8.4-11.41-.05-7.57,14.63-.28,13.93C76.37,231.55,84.83,226.4,96,226.64Z" style="fill:#9b7047"/><path d="M99.27,217c-7.14-6.74-11.53-7.77-12.33-21.52-.77-13.2,9.48-10.58,9.71-.84C96.76,198.9,94.82,206,99.27,217Z" style="fill:#9b7047"/><path d="M134.52,242.87c-5.5-4.7-15.94-10.67-15.9-23,0-13.22,9.89-10.58,9.71-.84C128.19,226.84,128.05,233.44,134.52,242.87Z" style="fill:#9b7047"/><path d="M170.85,253c-9-4.79-19.66-12-19.62-24.36.05-13.23,9.89-10.59,9.72-.85C160.8,235.64,162.54,244,170.85,253Z" style="fill:#9b7047"/><path d="M147.8,254.78c-9.82-4.14-20.4-3.92-27.35-3.32-10.85.94-8.46,13.51-1,13.52C132,265,131.15,254.7,147.8,254.78Z" style="fill:#9b7047"/><path d="M178.74,259.76c-10.42-2.18-19.46,2.56-23.38,8.33-5.63,8.29,5.68,15.61,9.17,7.08C168.92,264.47,167.19,263.71,178.74,259.76Z" style="fill:#9b7047"/></svg>