<svg id="Layer_1" data-name="Layer 1" xmlns="http://www.w3.org/2000/svg" viewBox="0 0 186.96 289.64"><path d="M29.43,276.84c0-3.28-.28-12,5.32-10,2.84,1,9.89,8.32,12.26,6.66,6.1-4.29,5.69-17,.06-19.64s-16.95,10.63-17.71,6.87,5.45-22.9,10-22.9S56,232.57,57.14,222.43s-1.5-16.89-9.76-12.39-14.26,21.4-15,19.15,3-36,15.39-39.8,14.8.17,17.8-6.59,8.18-21.47-4.6-19.24C45.62,166.23,42.13,186,39.5,185.64s2.11-21.1,7.76-27.9,17.95-20.48,29.21-13.35,21.26-13.18,15.14-19.73c-5.12-5.47-18.76-1.92-26.65,3.55-7.54,5.23-9.38,12.3-11.8,11.27-3.08-1.31,12.3-30.38,28-31.93,23.53-2.32,28.32,7.54,39.16,7.54,4.88,0,16.32.12,16.4-9.79.07-7.39-7.39-15.41-32.28-14.79-24.39.62-33.91,15.85-34.66,13.59s14.69-24.43,29.7-27.87c16.25-3.73,43.33-.35,55.33,13.09,11.77,13.2,32,4.23,27.45-4.64-4.94-9.73-21.6-22.51-35.9-23.89-41-4-44.77,11-44.47,6.22.09-1.38-2.53-1.66,34.76-13,13.56-4.12,14.21-13.5,19.83-15.56,9.18-3.37,15.8-20.21,10.72-23.66-15.77-10.7-28.74,15.52-36,21.37S101.65,61.66,99.65,59.66,133.79,24.38,120.47,9c-10.19-11.76-17.43,4-18,13.53-1.14,19-24.2,70.05-27.23,64-.79-1.57,10-22.53,10.62-43,.41-12.7,0-23.6-9.88-24.67-16.32-1.76-6.92,23.4-6.17,32.39,3.36,40.18-10.36,70.81-13.9,68.9-2.44-1.32,12.95-61.2-10.52-67.95C33.65,48.78,39,75.1,45.59,90.51c7.33,17,1.31,66.5-2.69,66.5s-2.59-43.5-7.29-53.1c-10.87-22.19-19.37.27-15.13,10.06,3.83,8.86,21.43,21.53,15.42,67-1.21,9.14-7-32-13-40-9.85-13.11-18.94,8.43-8,19,11.7,11.32,17.38,20.83,14,51.89-.56,5.12.19-17.84-14.54-32.48C3.86,169,1.44,188.22,9.53,197.58c11.14,12.88,17.74,17.32,16.82,37.86C26.16,239.56,18.9,216,11.9,216s-11.09,16.85-.4,20.38C22,239.86,24.27,245.12,24.9,258c.59,12.07-8-16-16-8s-3.62,23,1.38,21,11.57-12.87,13.62,5l1,15.63h4.32Z" style="fill:#423865;stroke:#000;stroke-miterlimit:10"/><path d="M107.94,62c12.81-4.92,29.84-3.8,40.4-14.5,8.6-8.71,4.33-22.94-3-16-5.23,5-14.92,15.91-18.3,18.73S107.94,62,107.94,62Z" style="fill:#9b7047"/><path d="M87.43,82c12.95-13.6,31.21-15.25,52.75-13.14,12.18,1.2,10.82,12.44.84,11.4C133.85,79.53,104.23,69.49,87.43,82Z" style="fill:#9b7047"/><path d="M89.22,69.49c9-11.18,20.58-18.57,27.3-32,4.93-9.86-5.91-12.53-11.26-3.24C101.66,40.49,89.22,69.49,89.22,69.49Z" style="fill:#9b7047"/><path d="M68.81,98.74c4-13.15,15-26.45,15.23-41.48.2-12.26-12.92-12.45-12.28-2.57C72.88,72.06,68.81,98.74,68.81,98.74Z" style="fill:#9b7047"/><path d="M50.38,131c2.45,0,7.77-30.25,6.72-54.52C56.47,62,45.29,62,45.67,73.8,46.48,99.35,51.83,122.94,50.38,131Z" style="fill:#9b7047"/><path d="M40.29,165.66c.68-8.81,1.16-34.4-4.59-52.87-5.54-17.8-14.91.22-8.12,9.9C37.69,137.08,39.24,165.09,40.29,165.66Z" style="fill:#9b7047"/><path d="M33.18,193.4c.73-2.94.65-25.56-5.1-44-5.54-17.81-14.46.91-8.11,10.89C27.81,172.61,32.88,185.5,33.18,193.4Z" style="fill:#9b7047"/><path d="M28.35,222.32a57.49,57.49,0,0,0-5.5-28.64c-8.07-16.81-16.46-1.07-8.62,7.79C23,211.41,25.83,215.51,28.35,222.32Z" style="fill:#9b7047"/><path d="M25.35,247.66c.37-8.07,1.07-12.47-3.08-20.86-7.1-14.36-17.32-.77-10.78,4C16.1,234.11,19.05,232.83,25.35,247.66Z" style="fill:#9b7047"/><path d="M23.83,267.59c.37-8.07-2.65-18.52-9.23-18.52-10.78,0-11.58,10.23-3.5,10.14C16.48,259.14,21.73,259.39,23.83,267.59Z" style="fill:#9b7047"/><path d="M29.18,251.28c0-10.66,4.32-28.43,15.82-28.43,10.9,0,7.42,13.47,0,13.34C40.69,236.12,34.87,240.43,29.18,251.28Z" style="fill:#9b7047"/><path d="M27.45,272.67c-1.51-7.83,5.35-19.85,11.93-19.85,9.57,0,5.44,13.52-1.37,13.52C32.62,266.34,29.55,264.47,27.45,272.67Z" style="fill:#9b7047"/><path d="M34.4,206.44C36.12,191.26,45,179.69,56.46,179.6c13.51-.1,7.3,12.78-1.85,13.22C50.3,193,41.53,196.49,34.4,206.44Z" style="fill:#9b7047"/><path d="M46.47,159.53c3.55-14.86,13.18-24.08,22.38-24.08,13.51,0,6.31,15.56-2.82,14.89C61.72,150,54.75,150.52,46.47,159.53Z" style="fill:#9b7047"/><path d="M61.4,118.6c9.88-16,20.46-21.89,42.1-22,18-.08,16.54,13.8,6.13,13.8C101.32,110.4,82.77,99.57,61.4,118.6Z" style="fill:#9b7047"/></svg>